<?xml version="1.0" encoding="UTF-8"?>
<svg width="256px" height="256px" viewBox="0 0 256 256" version="1.1" xmlns="http://www.w3.org/2000/svg" xmlns:xlink="http://www.w3.org/1999/xlink">
    <title>Post</title>
    <g id="Post" stroke="none" stroke-width="1" fill="none" fill-rule="evenodd">
        <rect fill="#000000" x="0" y="0" width="256" height="256"></rect>
        <path d="M186.356082,179.087939 L228.343369,179.087939 L201.868385,227.760718 L155.066309,227.760718 C134.47405,227.760718 125.650871,223.214729 125.382071,209.574945 C113.079023,223.748696 97.5703524,230.702988 78.5818119,230.702988 C60.9300065,230.702988 47.2920389,223.481712 37.397293,209.039161 C27.7695308,194.333258 24.8272605,175.878685 28.5722984,153.682707 C37.6642768,100.997907 71.6293362,74.789907 130.730828,74.789907 L133.137315,74.789907 L123.242569,121.85715 L120.300298,121.85715 C104.255844,121.85715 93.291347,133.893215 90.082093,155.288242 C87.6737903,170.529929 94.0922984,180.424675 106.662331,180.424675 C119.497531,180.424675 126.451823,171.065712 131.531779,147.264199 L157.205812,25.0491935 L218.98259,25.0491935 L186.356082,179.087939 Z" id="Fill-1" fill="#FFFFFF"></path>
    </g>
</svg>